<?xml version="1.0" encoding="UTF-8"?>
<svg id="Layer_2" data-name="Layer 2" xmlns="http://www.w3.org/2000/svg" xmlns:xlink="http://www.w3.org/1999/xlink" viewBox="0 0 263.65 281.77">
  <defs>
    <style>
      .cls-1 {
        letter-spacing: -.02em;
      }

      .cls-2 {
        opacity: .2;
      }

      .cls-3 {
        fill: #8ec653;
      }

      .cls-4 {
        filter: url(#drop-shadow-1);
        font-family: NewHero-SemiBold, 'New Hero';
        font-size: 32px;
        font-weight: 600;
      }

      .cls-5 {
        clip-path: url(#clippath);
      }

      .cls-6 {
        stroke: #fff;
        stroke-miterlimit: 10;
        stroke-width: 6px;
      }

      .cls-6, .cls-7 {
        fill: none;
      }

      .cls-8 {
        fill: #fff;
        font-family: HeroNew-Super, 'Hero New';
        font-size: 46.83px;
      }

      .cls-9 {
        letter-spacing: 0em;
      }
    </style>
    <clipPath id="clippath">
      <circle class="cls-7" cx="119.05" cy="91.75" r="91.75"/>
    </clipPath>
    <filter id="drop-shadow-1" filterUnits="userSpaceOnUse">
      <feOffset dx="5" dy="5"/>
      <feGaussianBlur result="blur" stdDeviation="5"/>
      <feFlood flood-color="#000" flood-opacity=".5"/>
      <feComposite in2="blur" operator="in"/>
      <feComposite in="SourceGraphic"/>
    </filter>
  </defs>
  <g id="Layer_1-2" data-name="Layer 1">
    <g>
      <g class="cls-5">
        <circle class="cls-3" cx="119.05" cy="91.75" r="91.75"/>
        <path class="cls-2" d="m167.73,235.94c-17.77-17.77-73.85-74.62-91.61-92.39-.74-4.44,42,23.7,76.66,3.17,34.97-20.72,29.4-46.46,29.97-49.66,4.27-24.04-19.73-50-15.18-52.22l96.08,100.58-95.91,90.53Z"/>
      </g>
      <text class="cls-4" transform="translate(10.1 213.15)"><tspan x="0" y="0">360</tspan><tspan class="cls-1" x="61.89" y="0"> </tspan><tspan x="69.34" y="0">virtuaali-</tspan><tspan x="27.34" y="38.4">ympäri</tspan><tspan class="cls-9" x="140.04" y="38.4">st</tspan><tspan x="169.77" y="38.4">ö</tspan></text>
      <circle class="cls-6" cx="119.05" cy="91.75" r="64.48"/>
      <ellipse class="cls-6" cx="119.05" cy="91.75" rx="64.48" ry="33.91"/>
      <text class="cls-8" transform="translate(73.78 109.3)"><tspan x="0" y="0">360</tspan></text>
    </g>
  </g>
</svg>