<?xml version="1.0" encoding="UTF-8"?>
<svg id="Layer_2" data-name="Layer 2" xmlns="http://www.w3.org/2000/svg" xmlns:xlink="http://www.w3.org/1999/xlink" viewBox="0 0 183.49 243.14">
  <defs>
    <style>
      .cls-1 {
        filter: url(#drop-shadow-1);
        font-family: NewHero-SemiBold, 'New Hero';
        font-size: 32px;
        font-weight: 600;
      }

      .cls-1, .cls-2 {
        fill: #fff;
      }

      .cls-3 {
        opacity: .2;
      }

      .cls-4 {
        fill: #8ec653;
      }

      .cls-2 {
        font-family: HeroNew-Super, 'Hero New';
        font-size: 39.15px;
      }

      .cls-5 {
        clip-path: url(#clippath);
      }

      .cls-6 {
        stroke: #fff;
        stroke-miterlimit: 10;
        stroke-width: 6px;
      }

      .cls-6, .cls-7 {
        fill: none;
      }
    </style>
    <clipPath id="clippath">
      <circle class="cls-7" cx="91.75" cy="91.75" r="91.75"/>
    </clipPath>
    <filter id="drop-shadow-1" filterUnits="userSpaceOnUse">
      <feOffset dx="5" dy="5"/>
      <feGaussianBlur result="blur" stdDeviation="5"/>
      <feFlood flood-color="#000" flood-opacity=".5"/>
      <feComposite in2="blur" operator="in"/>
      <feComposite in="SourceGraphic"/>
    </filter>
  </defs>
  <g id="Layer_1-2" data-name="Layer 1">
    <g>
      <g class="cls-5">
        <circle class="cls-4" cx="91.75" cy="91.75" r="91.75"/>
        <path class="cls-3" d="m103.45,224.12c-17.77-17.77-55.03-53.21-72.8-70.97-.74-4.44,28.11-29.84,31.08-30.49,3.87-.86,86.95,2.6,87.52-.6,4.27-24.04-1.36-88.8,3.19-91.03l75.78,86.92-124.76,106.18Z"/>
      </g>
      <text class="cls-1" transform="translate(27.33 213.15)"><tspan x="0" y="0">3D malli</tspan></text>
      <rect class="cls-6" x="33.59" y="61.73" width="88.18" height="88.18"/>
      <rect class="cls-6" x="61.73" y="33.59" width="88.18" height="88.18"/>
      <line class="cls-6" x1="122.77" y1="150.91" x2="150.91" y2="122.77"/>
      <line class="cls-6" x1="33.59" y1="149.91" x2="61.73" y2="121.76"/>
      <line class="cls-6" x1="32.59" y1="60.73" x2="60.73" y2="32.59"/>
      <line class="cls-6" x1="121.77" y1="61.73" x2="149.91" y2="33.59"/>
      <text class="cls-2" transform="translate(64.73 103.86)"><tspan x="0" y="0">3D</tspan></text>
    </g>
  </g>
</svg>