<?xml version="1.0" encoding="UTF-8"?>
<svg id="Layer_2" data-name="Layer 2" xmlns="http://www.w3.org/2000/svg" xmlns:xlink="http://www.w3.org/1999/xlink" viewBox="0 0 265.73 281.77">
  <defs>
    <style>
      .cls-1 {
        fill: #f16b81;
      }

      .cls-2 {
        fill: #fff;
        filter: url(#drop-shadow-1);
        font-family: NewHero-SemiBold, 'New Hero';
        font-size: 32px;
        font-weight: 600;
      }

      .cls-3 {
        fill: #c5e5ff;
      }

      .cls-4 {
        opacity: .2;
      }

      .cls-5 {
        fill: #ef4066;
      }

      .cls-6 {
        letter-spacing: -.03em;
      }

      .cls-7 {
        clip-path: url(#clippath);
      }

      .cls-8 {
        fill: none;
      }

      .cls-9 {
        letter-spacing: -.02em;
      }

      .cls-10 {
        letter-spacing: 0em;
      }

      .cls-11 {
        fill: #ae132a;
      }
    </style>
    <clipPath id="clippath">
      <circle class="cls-8" cx="121.13" cy="91.75" r="91.75"/>
    </clipPath>
    <filter id="drop-shadow-1" filterUnits="userSpaceOnUse">
      <feOffset dx="5" dy="5"/>
      <feGaussianBlur result="blur" stdDeviation="5"/>
      <feFlood flood-color="#000" flood-opacity=".5"/>
      <feComposite in2="blur" operator="in"/>
      <feComposite in="SourceGraphic"/>
    </filter>
  </defs>
  <g id="Layer_1-2" data-name="Layer 1">
    <g>
      <g class="cls-7">
        <circle class="cls-3" cx="121.13" cy="91.75" r="91.75"/>
        <path class="cls-4" d="m169.81,235.94c-17.77-17.77-86.02-75.66-103.79-93.43,22.13-17.51,35.19-.57,68.47-20.32,34.96-20.74,32.58-20.38,33.15-23.58,4.27-24.04,4.03-55.4,8.58-57.63l89.5,104.42-95.91,90.53Z"/>
      </g>
      <text class="cls-2" transform="translate(30.53 213.15)"><tspan x="0" y="0">Mat</tspan><tspan class="cls-10" x="66.46" y="0">t</tspan><tspan x="79.94" y="0">erport</tspan><tspan x="-20.19" y="38.4">3</tspan><tspan class="cls-6" x="-1.22" y="38.4">D</tspan><tspan x="21.66" y="38.4">/360 esit</tspan><tspan class="cls-9" x="167.07" y="38.4">y</tspan><tspan x="185.02" y="38.4">s</tspan></text>
      <g>
        <path class="cls-5" d="m160.48,36.58l-39.36,11.02-39.36-11.02-15.74,4.41v101.52l15.74,4.41,39.36-11.02,39.36,11.02,15.74-4.41V40.99l-15.74-4.41Zm-15.74,75.74l-23.61-6.61-23.61,6.61v-41.14l23.61,6.61,23.61-6.61v41.14Z"/>
        <g>
          <polygon class="cls-11" points="121.13 56.41 121.13 77.79 81.77 66.77 81.77 146.92 66.02 142.51 66.02 40.99 121.13 56.41"/>
          <polygon class="cls-11" points="144.74 121.14 121.13 114.52 121.13 135.9 160.48 146.92 160.48 66.77 144.74 71.17 144.74 121.14"/>
        </g>
        <g>
          <polygon class="cls-1" points="160.48 36.58 176.23 40.99 121.13 56.41 66.02 40.99 81.77 36.58 121.13 47.6 160.48 36.58"/>
          <polygon class="cls-1" points="121.13 105.71 144.74 112.32 144.74 121.14 121.13 114.52 97.51 121.14 97.51 112.32 121.13 105.71"/>
        </g>
      </g>
    </g>
  </g>
</svg>