<?xml version="1.0" encoding="UTF-8"?>
<svg id="Layer_2" data-name="Layer 2" xmlns="http://www.w3.org/2000/svg" xmlns:xlink="http://www.w3.org/1999/xlink" viewBox="0 0 230.83 244.21">
  <defs>
    <style>
      .cls-1 {
        fill: #3c5195;
      }

      .cls-2, .cls-3 {
        fill: #fff;
      }

      .cls-4 {
        fill: #1c3483;
      }

      .cls-3 {
        filter: url(#drop-shadow-1);
        font-family: NewHero-SemiBold, 'New Hero';
        font-size: 32px;
        font-weight: 600;
      }

      .cls-5 {
        opacity: .2;
      }

      .cls-6 {
        letter-spacing: 0em;
      }

      .cls-7 {
        clip-path: url(#clippath);
      }

      .cls-8 {
        fill: none;
      }

      .cls-9 {
        letter-spacing: 0em;
      }
    </style>
    <clipPath id="clippath">
      <circle class="cls-8" cx="91.75" cy="91.75" r="91.75"/>
    </clipPath>
    <filter id="drop-shadow-1" filterUnits="userSpaceOnUse">
      <feOffset dx="5" dy="5"/>
      <feGaussianBlur result="blur" stdDeviation="5"/>
      <feFlood flood-color="#000" flood-opacity=".5"/>
      <feComposite in2="blur" operator="in"/>
      <feComposite in="SourceGraphic"/>
    </filter>
  </defs>
  <g id="Layer_1-2" data-name="Layer 1">
    <g>
      <g class="cls-7">
        <circle class="cls-4" cx="91.75" cy="91.75" r="91.75"/>
        <rect class="cls-5" x="72.52" y="71.62" width="129.65" height="134.76" transform="translate(138.52 -56.41) rotate(45)"/>
      </g>
      <circle class="cls-1" cx="91.65" cy="91.75" r="67.38"/>
      <path class="cls-2" d="m158.99,89.52c-.47-14.73-5.83-28.97-15.16-40.38-.55-.68-1.12-1.35-1.7-2.01-12.66-14.32-30.88-22.61-49.98-22.75h-.03c-.32-.01-.62-.01-.94,0h-.03c-19.1.14-37.32,8.43-49.98,22.75-.58.66-1.15,1.33-1.7,2.01-9.33,11.41-14.69,25.65-15.16,40.39-.03.8-.04,1.53-.04,2.22,0,15.58,5.38,30.61,15.19,42.62.56.68,1.13,1.35,1.71,2.01,12.66,14.32,30.88,22.61,49.98,22.75h1c19.1-.14,37.32-8.43,49.98-22.75.58-.66,1.15-1.33,1.71-2.01,9.81-12.01,15.19-27.04,15.19-42.62,0-.69-.01-1.42-.04-2.23Zm-18.96-38.21c8.53,10.2,13.63,22.89,14.53,36.13h-27.57c-.33-10.35-1.91-20.4-4.59-29.33,6.58-1.76,12.49-4.04,17.63-6.8Zm-17.28,40.44c0,11.55-1.57,22.79-4.55,32.62-7.72-1.72-15.91-2.66-24.39-2.79v-29.83h28.94Zm-28.94-4.31v-25.51c8.48-.13,16.67-1.07,24.39-2.8,2.6,8.59,4.13,18.28,4.47,28.31h-28.86Zm13.85-56.67c.51.13,1.01.27,1.51.42.5.14,1,.29,1.5.45.49.16.99.32,1.48.49.49.16.98.34,1.47.53.48.17.95.35,1.42.55.05,0,.1.03.15.05.45.18.89.36,1.33.56.48.2.95.42,1.43.63.47.22.94.44,1.41.67,1.87.91,3.7,1.92,5.47,3.02.44.27.88.55,1.32.84.43.28.87.57,1.3.87.43.29.86.59,1.28.91.43.3.85.61,1.26.94.83.63,1.65,1.29,2.45,1.97.46.39.92.79,1.37,1.19.33.3.66.6.98.91.37.34.72.68,1.08,1.03.04.04.08.08.12.12.34.33.67.67,1,1.01.02.02.04.04.06.06-4.68,2.42-10.05,4.44-15.99,6-3.67-10.4-8.71-18.45-14.54-23.51.38.09.76.19,1.14.29Zm-13.92-2.04s.05.01.07,0c.31.02.61.03.91.05-.3-.02-.61-.03-.91-.04v.11c9.13,1.3,17.56,10.87,23.03,26.16-7.29,1.6-15.02,2.47-23.03,2.6v-28.76c-.58-.08-1.16-.13-1.74-.15.56,0,1.11.01,1.67.03Zm-47.43,19.2c.33-.35.66-.68,1-1.01.04-.04.08-.08.12-.12.35-.35.71-.7,1.08-1.03.32-.31.65-.61.98-.91.45-.4.91-.8,1.37-1.19.8-.68,1.61-1.34,2.45-1.97.41-.33.83-.64,1.26-.94.42-.32.85-.62,1.28-.91.43-.3.86-.59,1.3-.87.43-.29.87-.57,1.32-.84,1.77-1.1,3.6-2.11,5.47-3.02.47-.23.94-.46,1.41-.67.47-.22.95-.43,1.43-.63.44-.2.89-.38,1.34-.56.05-.02.09-.04.14-.05.47-.2.94-.38,1.42-.55.49-.19.98-.37,1.47-.53.49-.17.99-.34,1.48-.49.5-.16,1-.31,1.5-.45.5-.15,1-.29,1.51-.42.38-.1.76-.2,1.14-.29-5.83,5.06-10.87,13.11-14.54,23.51-5.94-1.56-11.31-3.58-15.99-6,.02-.02.04-.04.06-.06Zm14.32,39.51c.33-10.02,1.87-19.72,4.47-28.31,7.72,1.73,15.91,2.67,24.39,2.8v25.51h-28.86Zm28.86,4.31v29.83c-8.48.13-16.67,1.07-24.39,2.79-2.98-9.83-4.55-21.07-4.55-32.62h28.94Zm-46.22-40.44c5.14,2.76,11.05,5.04,17.63,6.8-2.69,8.94-4.26,18.99-4.59,29.33h-27.57c.9-13.24,6-25.93,14.53-36.13Zm.01,80.9c-9.49-11.33-14.69-25.63-14.69-40.46h27.64c0,11.89,1.61,23.47,4.67,33.65-6.57,1.75-12.48,4.03-17.62,6.81Zm32.36,20.53c-.41-.1-.81-.21-1.21-.33-.2-.06-.41-.12-.61-.18-.4-.11-.79-.23-1.19-.36-.49-.15-.99-.31-1.48-.49-.97-.33-1.93-.69-2.89-1.08-.05-.01-.09-.03-.14-.05-.45-.18-.9-.36-1.34-.56-.48-.2-.96-.41-1.43-.63-.47-.22-.94-.44-1.41-.67-.7-.34-1.39-.69-2.08-1.07-.69-.36-1.37-.75-2.05-1.15-2.27-1.32-4.46-2.79-6.56-4.41-.39-.3-.79-.6-1.17-.92-.41-.32-.82-.66-1.22-1-.46-.39-.92-.79-1.37-1.19-.33-.3-.66-.6-.98-.91-.37-.34-.72-.68-1.08-1.03-.04-.04-.08-.08-.12-.12-.34-.33-.67-.67-1-1.01-.02-.02-.04-.04-.06-.06,4.68-2.42,10.05-4.44,15.99-6,3.67,10.4,8.71,18.44,14.54,23.51-.38-.09-.76-.19-1.14-.29Zm13.92,2.04h-.07c-.1,0-.2-.01-.3-.02.1.01.2.01.3.01v-.11c-9.13-1.31-17.56-10.87-23.03-26.16,7.29-1.6,15.02-2.47,23.03-2.6v28.76c.58.08,1.16.13,1.74.15-.56,0-1.11-.01-1.67-.03Zm-.07-125.93v28.76c-8.01-.13-15.74-1-23.03-2.6,5.47-15.29,13.89-24.85,23.03-26.16v-.11c-.3.01-.61.02-.91.04.3-.02.6-.03.91-.05.02.01.04,0,.07,0,.56-.02,1.11-.03,1.67-.03-.58.02-1.17.07-1.74.15Zm4.62,125.91c-.1.01-.2.02-.3.02h-.07c-.56.02-1.11.03-1.67.03.58-.02,1.17-.07,1.74-.15v-28.76c8.01.13,15.74,1,23.03,2.6-5.47,15.28-13.89,24.84-23.03,26.16v.11c.1,0,.2,0,.3-.01Zm42.88-19.18c-.33.34-.66.68-1,1.01-.04.04-.08.08-.12.12-.36.35-.71.69-1.08,1.03-.32.31-.65.61-.98.91-.45.4-.91.8-1.37,1.19-.4.34-.81.68-1.22,1-.38.32-.78.62-1.17.92-2.1,1.62-4.29,3.09-6.56,4.41-.68.4-1.36.79-2.05,1.15-.69.38-1.38.73-2.08,1.07-.47.23-.94.45-1.41.67-.47.22-.95.43-1.43.63-.44.2-.88.38-1.33.56-.05.02-.1.04-.15.05-.96.39-1.92.75-2.89,1.08-.49.18-.99.34-1.48.49-.4.13-.79.25-1.19.36-.2.06-.41.12-.61.18-.4.12-.8.23-1.21.33-.38.1-.76.2-1.14.29,5.83-5.07,10.87-13.11,14.54-23.51,5.94,1.56,11.31,3.58,15.99,6-.02.02-.04.04-.06.06Zm3.03-3.37c-5.14-2.78-11.05-5.06-17.62-6.81,3.06-10.18,4.67-21.76,4.67-33.65h27.64c0,14.83-5.2,29.13-14.69,40.46Z"/>
      <text class="cls-3" transform="translate(12.16 214.2)"><tspan class="cls-9" x="0" y="0">N</tspan><tspan class="cls-6" x="25.57" y="0">e</tspan><tspan x="44.67" y="0">ttisivut</tspan></text>
    </g>
  </g>
</svg>