<?xml version="1.0" encoding="UTF-8"?>
<svg id="Layer_2" data-name="Layer 2" xmlns="http://www.w3.org/2000/svg" xmlns:xlink="http://www.w3.org/1999/xlink" viewBox="0 0 240.86 302.63">
  <defs>
    <style>
      .cls-1 {
        fill: #fff;
      }

      .cls-2 {
        letter-spacing: 0em;
      }

      .cls-3 {
        opacity: .2;
      }

      .cls-4 {
        fill: #1e3587;
      }

      .cls-5 {
        clip-path: url(#clippath);
      }

      .cls-6 {
        fill: none;
      }

      .cls-7 {
        filter: url(#drop-shadow-1);
        font-family: NewHero-SemiBold, 'New Hero';
        font-size: 40px;
        font-weight: 600;
      }
    </style>
    <clipPath id="clippath">
      <circle class="cls-6" cx="112.33" cy="91.75" r="91.75"/>
    </clipPath>
    <filter id="drop-shadow-1" filterUnits="userSpaceOnUse">
      <feOffset dx="5" dy="5"/>
      <feGaussianBlur result="blur" stdDeviation="5"/>
      <feFlood flood-color="#000" flood-opacity=".5"/>
      <feComposite in2="blur" operator="in"/>
      <feComposite in="SourceGraphic"/>
    </filter>
  </defs>
  <g id="Layer_1-2" data-name="Layer 1">
    <g>
      <g class="cls-5">
        <circle class="cls-1" cx="112.33" cy="91.75" r="91.75"/>
        <path class="cls-3" d="m156.37,201.31c-17.46-17.02-94.66-91.73-113.08-109.56,19.07-3.62,98.39,65,56.16,16.73-.61-.7,19.18-2.63,30.84-29.11,7.43-16.87,30.62-28.69,35.17-30.92l75.4,83.92-84.49,68.95Z"/>
      </g>
      <text class="cls-7" transform="translate(53.43 222.15)"><tspan class="cls-2" x="0" y="0">P</tspan><tspan x="25.4" y="0">alaa</tspan><tspan x="-42.64" y="48">edelliseen</tspan></text>
      <polygon class="cls-4" points="43.3 91.75 118.3 135.05 118.3 48.45 43.3 91.75"/>
      <polygon class="cls-4" points="90.46 91.75 165.46 135.05 165.46 48.45 90.46 91.75"/>
    </g>
  </g>
</svg>