<?xml version="1.0" encoding="UTF-8"?>
<svg id="Layer_2" data-name="Layer 2" xmlns="http://www.w3.org/2000/svg" xmlns:xlink="http://www.w3.org/1999/xlink" viewBox="0 0 200.77 249.58">
  <defs>
    <style>
      .cls-1 {
        letter-spacing: -.01em;
      }

      .cls-2 {
        fill: #ff7f00;
        filter: url(#drop-shadow-3);
        stroke: #ce410b;
        stroke-width: 5px;
      }

      .cls-2, .cls-3 {
        stroke-miterlimit: 10;
      }

      .cls-4 {
        letter-spacing: -.02em;
      }

      .cls-5 {
        letter-spacing: 0em;
      }

      .cls-3 {
        filter: url(#drop-shadow-2);
        stroke: #3f3215;
        stroke-width: 10px;
      }

      .cls-3, .cls-6 {
        fill: none;
      }

      .cls-7 {
        fill: #ffae64;
      }

      .cls-8 {
        clip-path: url(#clippath);
      }

      .cls-9 {
        filter: url(#drop-shadow-1);
        font-family: NewHero-SemiBold, 'New Hero';
        font-size: 40px;
        font-weight: 600;
      }

      .cls-10 {
        letter-spacing: -.02em;
      }
    </style>
    <clipPath id="clippath">
      <circle class="cls-6" cx="91.75" cy="91.75" r="91.75"/>
    </clipPath>
    <filter id="drop-shadow-1" filterUnits="userSpaceOnUse">
      <feOffset dx="5" dy="5"/>
      <feGaussianBlur result="blur" stdDeviation="5"/>
      <feFlood flood-color="#000" flood-opacity=".5"/>
      <feComposite in2="blur" operator="in"/>
      <feComposite in="SourceGraphic"/>
    </filter>
    <filter id="drop-shadow-2" filterUnits="userSpaceOnUse">
      <feOffset dx="20" dy="20"/>
      <feGaussianBlur result="blur-2" stdDeviation="7"/>
      <feFlood flood-color="#000" flood-opacity=".3"/>
      <feComposite in2="blur-2" operator="in"/>
      <feComposite in="SourceGraphic"/>
    </filter>
    <filter id="drop-shadow-3" filterUnits="userSpaceOnUse">
      <feOffset dx="20" dy="20"/>
      <feGaussianBlur result="blur-3" stdDeviation="7"/>
      <feFlood flood-color="#000" flood-opacity=".3"/>
      <feComposite in2="blur-3" operator="in"/>
      <feComposite in="SourceGraphic"/>
    </filter>
  </defs>
  <g id="Layer_1-2" data-name="Layer 1">
    <g>
      <g class="cls-8">
        <circle class="cls-7" cx="91.75" cy="91.75" r="91.75"/>
      </g>
      <text class="cls-9" transform="translate(35.87 217.15)"><tspan class="cls-10" x="0" y="0">S</tspan><tspan x="22.84" y="0">y</tspan><tspan class="cls-5" x="45.92" y="0">k</tspan><tspan class="cls-1" x="69.8" y="0">s</tspan><tspan class="cls-4" x="89.64" y="0">y</tspan></text>
      <path class="cls-3" d="m91.75,119.9s1.57,15.87-3.49,27.39c-5.06,11.52-5.82,14.27-5.82,14.27"/>
      <polygon class="cls-2" points="91.48 125.15 125.82 131.16 121.34 118.82 155.06 92.07 146.04 87.46 152.82 66.41 132.73 70.5 128.06 60.97 110.66 78.25 117.25 38.25 103.49 45.36 91.48 21.93 78.85 45.55 65.86 38.64 73.67 79.01 54.86 61.48 50.83 72.04 30.54 66.73 37.26 87.27 28.43 92.32 61.13 118.88 56.78 131.16 91.48 125.15"/>
    </g>
  </g>
</svg>