<?xml version="1.0" encoding="UTF-8"?>
<svg id="Layer_2" data-name="Layer 2" xmlns="http://www.w3.org/2000/svg" xmlns:xlink="http://www.w3.org/1999/xlink" viewBox="0 0 221 250.47">
  <defs>
    <style>
      .cls-1 {
        opacity: .2;
      }

      .cls-2 {
        letter-spacing: -.02em;
      }

      .cls-3 {
        fill: #69bdd1;
      }

      .cls-4 {
        fill: #231f20;
        filter: url(#drop-shadow-1);
        font-family: NewHero-SemiBold, 'New Hero';
        font-size: 40px;
        font-weight: 600;
      }

      .cls-5 {
        clip-path: url(#clippath);
      }

      .cls-6 {
        letter-spacing: -.06em;
      }

      .cls-7 {
        fill: none;
      }

      .cls-8 {
        fill: #8cd4ea;
      }

      .cls-8, .cls-9 {
        stroke: #fff;
        stroke-miterlimit: 10;
        stroke-width: 6px;
      }

      .cls-9 {
        fill: #7d9d47;
      }
    </style>
    <clipPath id="clippath">
      <circle class="cls-7" cx="105.6" cy="91.75" r="91.75"/>
    </clipPath>
    <filter id="drop-shadow-1" filterUnits="userSpaceOnUse">
      <feOffset dx="5" dy="5"/>
      <feGaussianBlur result="blur" stdDeviation="5"/>
      <feFlood flood-color="#000" flood-opacity=".5"/>
      <feComposite in2="blur" operator="in"/>
      <feComposite in="SourceGraphic"/>
    </filter>
  </defs>
  <g id="Layer_1-2" data-name="Layer 1">
    <g>
      <g class="cls-5">
        <circle class="cls-3" cx="105.6" cy="91.75" r="91.75"/>
        <path class="cls-1" d="m137.01,208.58c-17.77-17.77-65.02-65.02-82.78-82.78,4.11-9.9,75.99-.76,26.62-50.13-.66-.66,9.99-3.21,13.22-2.85,18.32,2.05,55.49-15.73,60.04-17.96l72,72.15-89.09,81.57Z"/>
      </g>
      <text class="cls-4" transform="translate(10.84 218.15)"><tspan class="cls-6" x="0" y="0">V</tspan><tspan x="27.2" y="0">aloku</tspan><tspan class="cls-2" x="140.2" y="0">v</tspan><tspan x="162.52" y="0">a</tspan></text>
      <path class="cls-9" d="m154.1,103.7v15.41c0,3.69-2.99,6.68-6.69,6.68H61.25c-3.7,0-6.69-2.99-6.69-6.68v-20.05s23.89-3.65,46.3,1.06c22.4,4.71,53.24,3.58,53.24,3.58Z"/>
      <path class="cls-8" d="m154.1,61.99v41.71s-30.84,1.13-53.24-3.58c-22.41-4.71-46.3-1.06-46.3-1.06v-37.07c0-3.69,2.99-6.68,6.69-6.68h86.16c3.7,0,6.69,2.99,6.69,6.68Z"/>
      <circle class="cls-9" cx="134.2" cy="69.36" r="1.52"/>
    </g>
  </g>
</svg>