<?xml version="1.0" encoding="UTF-8"?>
<svg id="Layer_2" data-name="Layer 2" xmlns="http://www.w3.org/2000/svg" xmlns:xlink="http://www.w3.org/1999/xlink" viewBox="0 0 201 250.47">
  <defs>
    <style>
      .cls-1, .cls-2 {
        fill: #fff;
      }

      .cls-2 {
        filter: url(#drop-shadow-1);
        font-family: NewHero-SemiBold, 'New Hero';
        font-size: 40px;
        font-weight: 600;
      }

      .cls-3 {
        opacity: .2;
      }

      .cls-4 {
        letter-spacing: -.09em;
      }

      .cls-5, .cls-6 {
        fill: none;
      }

      .cls-6 {
        clip-path: url(#clippath);
      }

      .cls-7 {
        letter-spacing: -.06em;
      }

      .cls-8 {
        letter-spacing: 0em;
      }

      .cls-9 {
        fill: red;
      }
    </style>
    <clipPath id="clippath">
      <circle class="cls-5" cx="95.51" cy="91.75" r="91.75"/>
    </clipPath>
    <filter id="drop-shadow-1" filterUnits="userSpaceOnUse">
      <feOffset dx="5" dy="5"/>
      <feGaussianBlur result="blur" stdDeviation="5"/>
      <feFlood flood-color="#000" flood-opacity=".5"/>
      <feComposite in2="blur" operator="in"/>
      <feComposite in="SourceGraphic"/>
    </filter>
  </defs>
  <g id="Layer_1-2" data-name="Layer 1">
    <g>
      <g class="cls-6">
        <circle class="cls-9" cx="95.51" cy="91.75" r="91.75"/>
        <path class="cls-3" d="m115.31,205.36c-17.77-17.77-51.86-50.31-69.62-68.07,8.53-14.32,72.06-29.7,22.7-79.07-.66-.66,14.15-7.37,18.28-7.92,23.45-3.08,64.65,10.73,71.34,6.36l58.86,56.76-101.56,91.93Z"/>
        <rect class="cls-1" x="24.91" y="44.34" width="141.2" height="94.81" rx="22.5" ry="22.5"/>
      </g>
      <text class="cls-2" transform="translate(10.17 218.15)"><tspan class="cls-4" x="0" y="0">Y</tspan><tspan x="24" y="0">o</tspan><tspan class="cls-7" x="49.96" y="0">uT</tspan><tspan class="cls-8" x="94.88" y="0">ube</tspan></text>
      <polygon class="cls-9" points="117.8 91.75 75.44 67.29 75.44 116.2 117.8 91.75"/>
    </g>
  </g>
</svg>